<?xml version="1.0" standalone="no"?>
<!DOCTYPE svg PUBLIC "-//W3C//DTD SVG 20010904//EN"
 "http://www.w3.org/TR/2001/REC-SVG-20010904/DTD/svg10.dtd">
<svg version="1.0" xmlns="http://www.w3.org/2000/svg"
 width="280.000000pt" height="280.000000pt" viewBox="0 0 280.000000 280.000000"
 preserveAspectRatio="xMidYMid meet">

<g transform="translate(0.000000,280.000000) scale(0.100000,-0.100000)"
fill="#000000" stroke="none">
<path d="M0 2764 l0 -36 53 5 c28 3 80 9 115 13 38 4 67 2 75 -4 18 -15 109
-62 120 -62 12 0 87 59 109 86 20 25 28 23 150 -34 37 -17 84 -34 103 -38 19
-3 51 -19 71 -35 20 -16 52 -34 71 -41 34 -12 34 -13 28 -58 -6 -43 -6 -44 9
-23 21 28 78 63 103 63 26 0 53 -30 53 -59 0 -12 4 -31 10 -41 15 -28 4 -44
-56 -85 -69 -48 -155 -140 -190 -205 -15 -27 -30 -50 -34 -50 -3 0 -20 19 -37
43 -26 38 -41 47 -119 76 -184 66 -235 83 -240 78 -6 -6 113 -206 160 -267 34
-44 34 -46 20 -85 -7 -22 -14 -50 -14 -62 0 -25 -19 -30 -50 -13 -22 12 -92 0
-97 -16 -2 -6 8 -19 22 -28 20 -13 33 -15 60 -7 44 12 46 -3 4 -25 -38 -19
-63 -14 -109 24 -29 25 -32 32 -22 44 22 27 -7 39 -53 23 -55 -20 -64 -19 -77
10 -8 18 -22 27 -49 31 -21 4 -36 10 -33 15 5 9 -6 12 -71 14 -22 0 -50 4 -62
9 -22 7 -23 5 -23 -48 l0 -55 27 14 c29 15 47 10 77 -24 11 -12 25 -21 33 -21
8 0 23 -4 33 -10 18 -9 18 -11 -4 -52 -21 -40 -34 -48 -98 -63 -9 -2 -24 5
-34 16 -9 10 -21 19 -26 19 -4 0 -8 -96 -8 -213 l0 -213 34 -12 c19 -7 38 -12
43 -10 4 1 19 -4 32 -11 28 -16 87 -7 95 14 3 9 18 15 34 15 16 0 47 13 70 30
23 17 45 30 48 30 4 0 21 11 38 23 17 13 51 27 75 31 l44 7 -8 -112 c-7 -116
-22 -182 -49 -224 -16 -25 -16 -25 -131 -26 -49 0 -67 21 -63 76 2 32 -1 40
-16 43 -28 6 -106 -19 -106 -33 0 -22 -52 -115 -61 -109 -5 3 -9 -2 -9 -10 0
-12 -10 -16 -35 -16 -32 0 -35 -3 -35 -29 0 -28 1 -29 53 -26 49 3 81 -6 160
-47 24 -12 56 -2 160 48 24 12 27 11 27 -5 0 -10 -12 -40 -26 -67 -58 -112
-128 -372 -139 -519 -6 -70 -3 -95 24 -197 27 -103 29 -123 21 -175 -6 -32
-10 -59 -10 -60 0 -2 55 -2 123 -2 67 1 114 3 105 6 -15 4 -17 18 -16 96 0 51
3 96 5 101 3 4 7 27 8 50 2 22 6 86 10 141 13 205 38 281 103 313 87 44 116
34 166 -59 l29 -52 -24 -69 -24 -69 29 -81 c15 -44 30 -102 32 -129 1 -27 5
-53 8 -58 3 -4 1 -37 -5 -72 -6 -35 -11 -74 -11 -86 0 -21 -5 -22 -102 -26
-74 -2 -58 -3 61 -5 142 -2 162 0 157 13 -5 12 -10 13 -20 4 -11 -9 -14 -6
-14 18 0 16 4 33 9 39 33 35 75 135 80 191 4 34 4 60 0 57 -9 -5 -29 51 -29
81 0 13 7 28 15 35 8 7 13 16 10 20 -3 5 1 11 7 14 7 2 2 4 -11 3 -35 -3 -35
44 2 125 26 59 28 72 20 107 l-10 39 93 46 c76 38 94 51 94 69 0 12 7 35 15
51 8 15 15 35 15 44 0 11 16 1 48 -29 80 -78 113 -98 153 -95 57 6 113 41 176
111 32 36 61 65 64 65 3 0 18 -31 34 -69 26 -61 36 -73 88 -107 66 -43 87 -68
87 -100 0 -12 12 -48 26 -80 25 -54 47 -142 61 -236 3 -22 -4 -69 -17 -120
-32 -120 -34 -142 -15 -191 9 -24 14 -58 12 -76 -5 -31 -5 -31 36 -30 39 0 46
5 91 60 l49 59 76 0 c42 0 86 3 99 6 16 5 22 2 22 -9 0 -17 -25 -34 -69 -48
-24 -7 -24 -7 -4 -8 13 -1 40 -7 60 -15 21 -8 51 -17 66 -20 15 -4 25 -11 22
-16 -4 -6 40 -10 116 -10 l122 0 -6 97 c-5 76 -2 107 9 138 10 24 18 88 21
156 8 174 -17 279 -113 476 -40 83 -85 164 -99 179 -14 15 -25 33 -25 42 0 8
-13 42 -28 76 -80 171 -99 221 -105 281 -6 50 -6 50 7 16 9 -27 14 -31 19 -18
3 9 2 19 -3 22 -15 9 -12 25 4 25 8 0 18 5 21 10 4 7 -3 9 -22 5 l-28 -6 25
16 c23 15 23 16 3 12 -18 -4 -24 2 -36 39 -8 24 -10 44 -6 44 5 0 9 -4 9 -10
0 -6 9 -6 26 0 33 13 54 12 31 -1 -15 -9 -16 -13 -5 -26 7 -9 12 -18 11 -19
-3 -7 10 -44 16 -44 3 0 26 16 50 35 44 36 59 39 156 37 28 -1 44 1 38 4 -7 3
-13 14 -13 25 0 13 -7 18 -22 17 -13 -1 -39 3 -58 8 -19 5 -71 9 -115 8 -107
-2 -114 -4 -90 -14 17 -7 15 -9 -12 -9 -30 -1 -49 18 -20 20 6 0 3 4 -8 9 -19
8 -19 8 5 18 16 7 19 11 9 11 -21 1 -43 -25 -34 -39 3 -5 2 -10 -3 -10 -13 0
-42 74 -42 106 0 21 3 24 23 19 21 -6 21 -5 2 6 -51 31 -33 61 49 84 34 9 82
23 108 31 56 17 158 18 192 3 17 -8 37 -9 63 -2 21 5 50 6 65 2 33 -9 98 9 98
27 0 6 7 14 15 18 13 5 15 63 15 441 l0 435 -625 0 c-344 0 -625 -2 -625 -4 0
-2 21 -17 47 -32 54 -31 82 -61 83 -86 0 -40 -66 -34 -76 7 -3 13 -15 27 -25
30 -10 4 -19 11 -19 17 0 5 -7 8 -15 4 -10 -3 -15 1 -15 13 0 10 -11 26 -24
35 -22 14 -105 16 -765 16 l-741 0 0 -36z m1408 -166 c21 -21 14 -55 -13 -62
-46 -12 -104 51 -62 67 23 10 63 7 75 -5z m-98 -89 c0 -5 -6 -9 -14 -9 -15 0
-28 24 -19 34 7 7 33 -13 33 -25z m-74 -16 c-11 -11 -19 6 -11 24 8 17 8 17
12 0 3 -10 2 -21 -1 -24z m-115 -386 c-13 -13 -15 1 -4 30 7 17 8 17 11 -1 2
-10 -1 -23 -7 -29z m1085 26 c-22 -3 -52 -13 -67 -24 -15 -10 -35 -19 -46 -18
-14 0 -13 3 7 12 14 6 31 17 38 24 8 7 34 12 60 11 47 -1 47 -1 8 -5z m93 -2
c11 -7 7 -17 -19 -50 -30 -36 -38 -41 -76 -41 -80 0 -102 24 -30 32 46 5 95
34 96 56 0 14 9 15 29 3z m-841 -139 c33 -169 37 -212 18 -212 -22 0 -20 -17
3 -23 12 -3 21 -16 24 -33 4 -29 4 -29 22 13 12 29 23 41 37 40 15 -1 18 -6
12 -32 -3 -16 -10 -32 -15 -33 -5 -2 -14 -13 -20 -24 -10 -18 -9 -18 10 -8 17
8 21 8 21 -3 0 -8 10 -17 22 -20 18 -5 19 -8 8 -22 -18 -22 -2 -33 42 -28 37
5 48 20 48 71 0 28 10 28 34 1 16 -19 19 -20 34 -6 11 12 13 19 4 29 -8 11 -6
21 8 43 l20 30 1 -25 c0 -14 2 -34 4 -45 2 -11 7 -46 11 -77 4 -39 11 -58 20
-58 9 0 14 -11 14 -27 l0 -27 17 23 c12 18 14 28 5 41 -9 14 -7 22 8 35 23 21
54 16 58 -9 3 -11 0 -16 -7 -12 -7 5 -11 -3 -12 -18 -1 -14 -3 -30 -4 -36 -1
-5 -3 -14 -4 -19 0 -5 -13 -23 -27 -40 -22 -26 -24 -33 -13 -53 15 -28 18
-163 4 -177 -8 -8 -11 11 -11 62 1 39 -3 84 -7 100 -6 23 -10 26 -27 17 -10
-5 -25 -8 -32 -5 -9 4 -23 -13 -40 -48 -14 -29 -49 -78 -78 -110 -50 -55 -58
-74 -59 -145 -1 -28 -8 -37 -47 -60 -26 -15 -67 -46 -92 -70 l-45 -43 -31 30
c-17 16 -57 42 -89 56 -40 19 -59 35 -63 51 -11 45 2 45 71 -4 85 -59 100 -65
128 -51 30 15 66 50 79 74 9 15 4 13 -21 -8 -54 -45 -74 -45 -168 2 -110 56
-196 117 -260 183 -39 42 -57 54 -79 53 -16 0 -32 -4 -36 -10 -4 -5 -8 -50 -8
-100 0 -61 -3 -86 -10 -79 -12 12 -15 135 -5 174 5 20 -1 32 -30 60 -20 19
-40 52 -46 74 -8 29 -13 36 -20 25 -7 -11 -9 -9 -9 9 0 43 46 11 64 -45 6 -20
34 -39 44 -29 2 3 -1 19 -7 37 -16 45 -15 107 1 91 18 -18 28 -15 28 8 0 14 6
20 18 18 11 -2 17 3 17 15 0 10 9 25 20 33 17 13 20 12 27 -6 4 -11 16 -20 28
-20 22 0 27 -16 8 -23 -10 -4 -10 -7 -1 -17 9 -10 21 -11 45 -4 30 9 33 14 36
53 3 37 6 42 23 38 16 -4 19 0 19 24 0 16 -5 29 -11 29 -5 0 -7 -4 -4 -10 3
-5 -1 -10 -9 -10 -10 0 -16 9 -16 25 0 18 5 25 19 25 11 0 23 5 26 10 3 6 -3
10 -14 10 -20 0 -21 5 -20 108 1 59 4 131 7 161 8 62 16 67 121 77 30 2 60 8
68 13 8 4 26 6 42 3 26 -4 28 -8 49 -110z m242 -176 c0 -4 -9 -6 -20 -3 -11 3
-20 1 -20 -3 0 -5 10 -10 23 -12 16 -2 23 -11 25 -34 3 -30 2 -31 -42 -32 -51
-2 -55 5 -31 51 8 15 17 45 20 65 13 76 18 80 31 27 8 -27 14 -54 14 -59z
m-134 -18 c-14 -10 -15 -7 -8 27 6 30 6 30 12 5 4 -14 2 -28 -4 -32z m-572
-30 c7 -34 3 -44 -13 -33 -13 7 -15 65 -2 65 5 0 11 -14 15 -32z m93 -20 c-3
-7 -5 -2 -5 12 0 14 2 19 5 13 2 -7 2 -19 0 -25z m-62 -59 c19 -36 20 -34 -22
-42 -33 -6 -33 -6 -33 33 0 33 3 40 20 40 12 0 26 -12 35 -31z m95 12 c13 -26
13 -31 -5 -31 -8 0 -15 5 -15 10 0 6 -7 10 -15 10 -8 0 -15 7 -15 15 0 22 37
18 50 -4z m725 -530 c3 -5 1 -12 -5 -16 -5 -3 -10 1 -10 9 0 18 6 21 15 7z
m185 -51 c0 -11 -4 -20 -10 -20 -5 0 -10 9 -10 20 0 11 5 20 10 20 6 0 10 -9
10 -20z m240 -6 c0 -8 -4 -12 -10 -9 -5 3 -10 10 -10 16 0 5 5 9 10 9 6 0 10
-7 10 -16z m-1520 -10 c0 -8 -5 -12 -10 -9 -6 4 -8 11 -5 16 9 14 15 11 15 -7z
m1564 0 c10 -25 -1 -29 -14 -5 -6 12 -7 21 -1 21 5 0 12 -7 15 -16z m-1896
-19 c-3 -3 -9 2 -12 12 -6 14 -5 15 5 6 7 -7 10 -15 7 -18z m562 -25 c0 -5 -4
-10 -10 -10 -5 0 -10 5 -10 10 0 6 5 10 10 10 6 0 10 -4 10 -10z m-424 -46
c-4 -14 -9 -24 -12 -21 -3 2 -2 17 2 31 3 15 9 25 11 22 3 -3 2 -17 -1 -32z
m-41 -34 c-4 -12 -9 -19 -12 -17 -3 3 -2 15 2 27 4 12 9 19 12 17 3 -3 2 -15
-2 -27z m-75 -147 c-11 -70 -43 -219 -70 -330 -28 -112 -50 -209 -50 -218 0
-23 -17 -18 -24 8 -4 12 -9 65 -12 117 -8 128 10 207 84 367 32 71 65 147 72
168 22 67 22 24 0 -112z m2023 65 c25 -46 62 -132 83 -193 32 -96 38 -125 42
-229 3 -77 1 -117 -5 -113 -6 4 -13 32 -17 64 -4 32 -18 102 -31 156 -14 54
-25 108 -25 120 0 13 -4 27 -9 32 -5 6 -24 55 -44 110 -19 55 -38 108 -42 118
-17 43 7 10 48 -65z m-227 -134 c45 -22 90 -77 109 -134 8 -25 19 -94 25 -155
6 -60 15 -119 20 -130 19 -42 33 -212 19 -220 -12 -8 -32 34 -24 52 5 16 -30
63 -47 63 -4 0 -8 -11 -8 -24 0 -30 -14 -40 -46 -32 -17 5 -24 13 -24 30 0 22
-33 46 -64 46 -20 0 -41 -30 -38 -55 4 -28 -21 -49 -49 -40 -18 6 -20 13 -16
40 3 19 -1 44 -9 59 -12 24 -11 33 3 69 9 23 21 48 26 55 12 15 2 113 -19 197
-17 64 -13 118 12 166 12 25 20 29 55 29 23 0 56 -7 75 -16z"/>
<path d="M1373 1525 c0 -22 2 -30 4 -17 2 12 2 30 0 40 -3 9 -5 -1 -4 -23z"/>
<path d="M1550 1135 c-11 -13 -10 -14 4 -9 9 3 16 10 16 15 0 13 -6 11 -20 -6z"/>
<path d="M2272 419 c2 -6 8 -10 13 -10 5 0 11 4 13 10 2 6 -4 11 -13 11 -9 0
-15 -5 -13 -11z"/>
<path d="M2763 1823 c-22 -8 -14 -23 12 -23 16 0 25 6 25 15 0 15 -14 18 -37
8z"/>
<path d="M2648 1807 c-7 -8 -18 -12 -25 -10 -17 6 -27 -18 -12 -28 19 -12 66
-11 90 1 13 7 19 7 19 1 0 -6 -11 -13 -25 -17 -14 -3 -25 -11 -25 -18 0 -6 -5
-4 -10 4 -8 13 -12 11 -27 -10 -32 -44 -34 -57 -7 -52 13 2 24 8 24 13 0 4 17
11 38 15 20 4 42 10 47 14 6 4 23 10 38 14 24 6 27 9 17 21 -8 9 -21 13 -36 9
-14 -4 -24 -2 -24 5 0 6 7 8 17 4 28 -11 5 14 -29 31 -38 19 -53 20 -70 3z"/>
<path d="M2208 1793 c7 -3 16 -2 19 1 4 3 -2 6 -13 5 -11 0 -14 -3 -6 -6z"/>
<path d="M2537 1294 c-11 -11 3 -24 18 -18 8 4 12 10 9 15 -6 11 -18 12 -27 3z"/>
<path d="M2670 1268 c-42 -7 -58 -15 -65 -31 -6 -12 -21 -24 -35 -27 -29 -6
-40 -40 -13 -40 21 0 115 -48 125 -63 4 -7 11 -7 20 0 7 6 32 17 56 24 l42 12
0 62 c0 62 0 63 -31 69 -17 3 -34 5 -38 5 -3 -1 -31 -6 -61 -11z"/>
<path d="M2545 1080 c-19 -8 -19 -9 3 -9 12 -1 22 4 22 9 0 6 -1 10 -2 9 -2 0
-12 -4 -23 -9z"/>
<path d="M2710 1061 c0 -10 11 -30 25 -45 29 -31 31 -48 10 -66 -19 -15 -11
-25 28 -34 l27 -6 0 70 c0 61 -2 70 -18 70 -10 0 -27 7 -38 15 -26 19 -34 19
-34 -4z"/>
<path d="M2763 857 c-33 -10 -45 -27 -19 -27 8 0 16 -4 18 -9 5 -15 40 16 36
31 -2 11 -10 12 -35 5z"/>
<path d="M1403 779 c-25 -9 -49 -42 -58 -81 -4 -16 -12 -28 -19 -28 -6 0 -3
-5 7 -11 9 -5 17 -16 17 -23 0 -8 7 -19 15 -26 9 -7 14 -19 11 -26 -3 -9 10
-11 55 -7 64 4 70 -1 39 -35 -23 -25 -40 -28 -58 -10 -9 9 -12 9 -12 0 0 -6
12 -15 26 -18 22 -6 32 -1 55 27 16 19 34 40 40 48 17 19 17 123 0 155 -19 35
-74 52 -118 35z m59 -60 c-5 -30 -13 -45 -25 -47 -13 -3 -17 4 -17 26 0 17 -3
38 -7 47 -5 14 -2 16 15 11 11 -4 23 -2 27 4 12 20 15 5 7 -41z m46 -11 c-6
-18 -28 -21 -28 -4 0 9 7 16 16 16 9 0 14 -5 12 -12z m-88 -78 c0 -5 -5 -10
-11 -10 -5 0 -7 5 -4 10 3 6 8 10 11 10 2 0 4 -4 4 -10z"/>
<path d="M1246 673 c-6 -14 -5 -15 5 -6 7 7 10 15 7 18 -3 3 -9 -2 -12 -12z"/>
<path d="M1560 680 c-9 -6 -10 -10 -3 -10 6 0 15 5 18 10 8 12 4 12 -15 0z"/>
<path d="M1416 561 c-3 -5 1 -11 9 -14 9 -4 12 -1 8 9 -6 16 -10 17 -17 5z"/>
<path d="M1145 480 c3 -5 8 -10 11 -10 2 0 4 5 4 10 0 6 -5 10 -11 10 -5 0 -7
-4 -4 -10z"/>
<path d="M1065 460 c-3 -5 -1 -10 4 -10 6 0 11 5 11 10 0 6 -2 10 -4 10 -3 0
-8 -4 -11 -10z"/>
<path d="M1129 444 c-15 -8 -33 -21 -40 -30 -9 -11 3 -8 39 10 28 14 52 29 52
31 0 9 -24 3 -51 -11z"/>
<path d="M1698 430 c-52 -27 -91 -58 -52 -43 11 4 23 -2 36 -18 19 -23 19 -17
2 26 -9 21 60 49 104 41 32 -5 33 -4 16 9 -26 20 -40 17 -106 -15z"/>
<path d="M1045 380 c-14 -16 -29 -70 -19 -70 4 0 43 84 40 87 -1 2 -11 -6 -21
-17z"/>
<path d="M1287 389 c7 -7 15 -10 18 -7 3 3 -2 9 -12 12 -14 6 -15 5 -6 -5z"/>
<path d="M1280 356 c0 -2 7 -7 16 -10 8 -3 12 -2 9 4 -6 10 -25 14 -25 6z"/>
<path d="M1378 333 c-18 -21 -31 -43 -25 -43 2 0 13 14 25 30 25 33 24 41 0
13z"/>
<path d="M1320 318 c-24 -26 -25 -41 -5 -58 9 -8 15 -8 15 -2 0 6 -6 12 -12
15 -9 3 -6 13 10 36 26 36 22 41 -8 9z"/>
<path d="M1520 336 c0 -2 8 -10 18 -17 15 -13 16 -12 3 4 -13 16 -21 21 -21
13z"/>
<path d="M1610 272 c-63 -69 -75 -88 -26 -42 40 38 74 80 64 80 -2 0 -19 -17
-38 -38z"/>
<path d="M1563 259 c-18 -16 -33 -33 -33 -36 0 -4 16 8 35 27 32 31 39 40 33
40 -2 0 -18 -14 -35 -31z"/>
<path d="M692 254 c10 -10 20 -15 24 -12 3 4 -5 12 -18 18 -22 12 -22 12 -6
-6z"/>
<path d="M1362 184 c10 -10 20 -15 24 -12 3 4 -5 12 -18 18 -22 12 -22 12 -6
-6z"/>
<path d="M510 170 c-8 -5 -10 -10 -5 -10 6 0 17 5 25 10 8 5 11 10 5 10 -5 0
-17 -5 -25 -10z"/>
<path d="M1494 165 c-10 -8 -27 -15 -38 -15 -13 0 -16 -3 -8 -12 5 -7 12 -24
15 -38 l4 -25 2 25 c2 30 9 41 41 63 13 9 20 17 14 17 -6 0 -19 -7 -30 -15z"/>
<path d="M1407 159 c7 -7 15 -10 18 -7 3 3 -2 9 -12 12 -14 6 -15 5 -6 -5z"/>
<path d="M510 30 c-13 -9 -13 -10 0 -10 8 0 22 5 30 10 13 9 13 10 0 10 -8 0
-22 -5 -30 -10z"/>
<path d="M993 26 c-4 -8 -19 -16 -33 -19 -14 -2 99 -4 250 -4 151 1 228 3 170
4 -75 3 -109 8 -121 19 -13 12 -32 13 -98 8 -44 -4 -81 -11 -81 -15 0 -5 -9
-9 -20 -9 -13 0 -18 5 -14 15 8 20 -42 21 -53 1z"/>
<path d="M98 3 c7 -3 16 -2 19 1 4 3 -2 6 -13 5 -11 0 -14 -3 -6 -6z"/>
<path d="M563 3 c9 -2 23 -2 30 0 6 3 -1 5 -18 5 -16 0 -22 -2 -12 -5z"/>
<path d="M1518 3 c6 -2 18 -2 25 0 6 3 1 5 -13 5 -14 0 -19 -2 -12 -5z"/>
<path d="M1598 3 c7 -3 16 -2 19 1 4 3 -2 6 -13 5 -11 0 -14 -3 -6 -6z"/>
<path d="M1688 3 c28 -2 76 -2 105 0 28 2 5 3 -53 3 -58 0 -81 -1 -52 -3z"/>
<path d="M2088 3 c12 -2 30 -2 40 0 9 3 -1 5 -23 4 -22 0 -30 -2 -17 -4z"/>
<path d="M2198 3 c12 -2 32 -2 45 0 12 2 2 4 -23 4 -25 0 -35 -2 -22 -4z"/>
</g>
</svg>
